<svg xmlns="http://www.w3.org/2000/svg" viewBox="-12.0 8.2 435.4 122.6" width="435" height="123"><style>.body{fill:#0B2224}.g-a{stop-color:#0E6B6B}.g-b{stop-color:#34F5C5}.g-c{stop-color:#FFD98A}.g-sun{stop-color:#FFF4D6}.sun{fill:#FFF4D6}.ink{fill:#E8FBF6}.tile{fill:#071315}.rim{stroke:rgba(160,255,235,.18)}</style><defs><linearGradient id="xL" gradientUnits="userSpaceOnUse" x1="-8.2" y1="0" x2="419.6" y2="0"><stop offset="0" class="g-a" stop-opacity=".15"/><stop offset=".28" class="g-b"/><stop offset=".5" class="g-sun"/><stop offset=".72" class="g-b"/><stop offset="1" class="g-a" stop-opacity=".15"/></linearGradient><radialGradient id="xH" gradientUnits="userSpaceOnUse" cx="205.7" cy="1169.9" r="1131.7"><stop offset="0.9788" class="g-a" stop-opacity="0"/><stop offset="0.9894" class="g-a" stop-opacity=".35"/><stop offset="1" class="g-b" stop-opacity=".55"/></radialGradient><linearGradient id="xF" gradientUnits="userSpaceOnUse" x1="-8.2" y1="0" x2="419.6" y2="0"><stop offset="0" stop-color="#fff" stop-opacity="0"/><stop offset=".5" stop-color="#fff"/><stop offset="1" stop-color="#fff" stop-opacity="0"/></linearGradient><mask id="xX"><rect x="-8.2" y="37.2" width="427.8" height="46.4" fill="url(#xF)"/></mask><radialGradient id="xG"><stop offset="0" class="g-c" stop-opacity=".75"/><stop offset="1" class="g-c" stop-opacity="0"/></radialGradient><linearGradient id="xS"><stop offset="0" class="g-c" stop-opacity="0"/><stop offset=".5" class="g-sun"/><stop offset="1" class="g-c" stop-opacity="0"/></linearGradient><mask id="xM"><rect x="-2057.7" y="-2225.1" width="4526.7" height="4526.7" fill="#fff"/><circle cx="205.7" cy="1169.9" r="1131.7" fill="#000"/></mask></defs><circle cx="205.7" cy="1169.9" r="1131.7" fill="url(#xH)" mask="url(#xX)"/><g mask="url(#xM)"><circle cx="205.7" cy="38.2" r="24.5" fill="url(#xG)"/><circle cx="205.7" cy="39.3" r="7.2" class="sun"/></g><path d="M-8.2 58.6 A1131.7 1131.7 0 0 1 419.6 58.6" fill="none" stroke="url(#xL)" stroke-width="3" stroke-linecap="round"/><rect x="34.6" y="37.4" width="342.3" height="1.7" rx="0.8" fill="url(#xS)"/><path d="M2.9 104.2V103Q2.9 101.7 4.2 101.7H9.3Q10.6 101.7 10.6 103V103.4Q10.6 105.7 11.5 106.6Q12.4 107.4 14.8 107.4H17.6Q19.9 107.4 20.8 106.5Q21.8 105.6 21.8 103.1V102.4Q21.8 100.7 20.4 99.8Q19 98.8 16.9 98.6Q14.8 98.5 12.3 98Q9.9 97.4 7.8 96.6Q5.7 95.8 4.3 93.4Q2.9 91.1 2.9 87.4V85.3Q2.9 80.6 5.5 78Q8.2 75.4 12.8 75.4H18.8Q23.6 75.4 26.2 78Q28.9 80.6 28.9 85.3V86.4Q28.9 87.7 27.6 87.7H22.5Q21.2 87.7 21.2 86.4V86Q21.2 83.7 20.3 82.9Q19.4 82 17 82H14.7Q12.2 82 11.4 82.9Q10.5 83.9 10.5 86.6V87.7Q10.5 90.5 15.4 91Q20.5 91.4 24.5 93Q26.6 93.9 28 96.2Q29.4 98.5 29.4 102.1V104.2Q29.4 108.8 26.8 111.4Q24.1 114 19.4 114H12.9Q8.2 114 5.6 111.4Q2.9 108.8 2.9 104.2Z" class="ink"/><path d="M51.2 114H46.1Q44.8 114 44.8 112.7V82.7Q44.8 82 44.2 82H37.3Q36.1 82 36.1 80.8V76.7Q36.1 75.4 37.3 75.4H60Q61.3 75.4 61.3 76.7V80.8Q61.3 82 60 82H53.2Q52.4 82 52.4 82.7V112.7Q52.4 114 51.2 114Z" class="ink"/><path d="M89.7 114H70.1Q68.8 114 68.8 112.7V76.7Q68.8 75.4 70.1 75.4H89.7Q90.9 75.4 90.9 76.7V80.8Q90.9 82 89.7 82H77.2Q76.4 82 76.4 82.7V90.5Q76.4 91.1 77.2 91.1H87.4Q88.7 91.1 88.7 92.4V96.5Q88.7 97.7 87.4 97.7H77.2Q76.4 97.7 76.4 98.4V106.7Q76.4 107.4 77.2 107.4H89.7Q90.9 107.4 90.9 108.7V112.7Q90.9 114 89.7 114Z" class="ink"/><path d="M108.5 76.7V112.7Q108.5 114 107.2 114H102.1Q100.9 114 100.9 112.7V76.7Q100.9 75.4 102.1 75.4H107.2Q108.5 75.4 108.5 76.7Z" class="ink"/><path d="M125.8 114H120.8Q119.6 114 119.6 112.7V76.7Q119.6 75.4 120.8 75.4H125.3Q126.6 75.4 127 76.3L139.1 99H139.4V76.7Q139.4 75.4 140.6 75.4H145.6Q146.9 75.4 146.9 76.7V112.7Q146.9 114 145.6 114H141.2Q139.9 114 139.3 112.8L127.3 90.5H127.1V112.7Q127.1 114 125.8 114Z" class="ink"/><path d="" class="ink"/><path d="M180.2 114H175.1Q173.9 114 173.9 112.7V76.7Q173.9 75.4 175.1 75.4H189.8Q194.5 75.4 197 78Q199.6 80.5 199.6 85.2V91Q199.6 95.6 197 98.2Q194.5 100.7 189.8 100.7H182.2Q181.5 100.7 181.5 101.4V112.7Q181.5 114 180.2 114ZM182.2 94.1H188.5Q190.4 94.1 191.2 93.3Q192 92.5 192 90.6V85.6Q192 83.6 191.2 82.8Q190.4 82 188.5 82H182.2Q181.5 82 181.5 82.7V93.4Q181.5 94.1 182.2 94.1Z" class="ink"/><path d="M215 114H209.9Q208.7 114 208.7 112.7V76.7Q208.7 75.4 209.9 75.4H224.2Q228.9 75.4 231.5 78Q234.2 80.6 234.2 85.3V89.9Q234.2 96.7 228.8 98.9V99.2L235.3 112.6Q235.8 114 234.2 114H229.4Q228.3 114 227.8 113.8Q227.3 113.5 227 112.7L221 99.8H217Q216.3 99.8 216.3 100.4V112.7Q216.3 114 215 114ZM217 93.7H222.8Q224.8 93.7 225.7 92.8Q226.6 92 226.6 90.2V85.6Q226.6 83.7 225.7 82.9Q224.8 82 222.8 82H217Q216.3 82 216.3 82.7V93Q216.3 93.7 217 93.7Z" class="ink"/><path d="M255 107.4H259.3Q261.2 107.4 262 106.6Q262.8 105.8 262.8 103.9V85.6Q262.8 83.6 262 82.8Q261.2 82 259.3 82H255Q253.1 82 252.3 82.8Q251.5 83.6 251.5 85.6V103.9Q251.5 105.8 252.3 106.6Q253.1 107.4 255 107.4ZM260.5 114H253.8Q249.1 114 246.5 111.5Q243.9 109 243.9 104.2V85.2Q243.9 80.5 246.5 77.9Q249.1 75.4 253.8 75.4H260.5Q265.3 75.4 267.8 77.9Q270.4 80.5 270.4 85.2V104.2Q270.4 109 267.8 111.5Q265.3 114 260.5 114Z" class="ink"/><path d="M288.9 107.4H295.4Q297.4 107.4 298.2 106.6Q299 105.8 299 103.9V85.6Q299 83.6 298.2 82.8Q297.4 82 295.4 82H288.9Q288.2 82 288.2 82.7V106.7Q288.2 107.4 288.9 107.4ZM280.6 112.7V76.7Q280.6 75.4 281.9 75.4H296.7Q301.4 75.4 304 78Q306.6 80.5 306.6 85.2V104.2Q306.6 108.9 304 111.5Q301.4 114 296.7 114H281.9Q280.6 114 280.6 112.7Z" class="ink"/><path d="M336.5 75.4H341.6Q342.9 75.4 342.9 76.6V104.2Q342.9 108.9 340.3 111.5Q337.7 114 333 114H326.4Q321.7 114 319.1 111.5Q316.5 109 316.5 104.2V76.7Q316.5 75.4 317.8 75.4H322.9Q324.1 75.4 324.1 76.7V103.9Q324.1 105.8 324.9 106.6Q325.7 107.4 327.6 107.4H331.7Q333.7 107.4 334.5 106.6Q335.3 105.8 335.3 103.9V76.7Q335.3 75.4 336.5 75.4Z" class="ink"/><path d="M369.2 114H362.7Q358 114 355.4 111.5Q352.8 109 352.8 104.2V85.2Q352.8 80.5 355.4 77.9Q358 75.4 362.7 75.4H369.2Q373.9 75.4 376.5 78Q379.1 80.5 379.1 85.2V88Q379.1 89.3 377.8 89.3H372.8Q371.5 89.3 371.5 88V85.6Q371.5 83.6 370.7 82.8Q369.9 82 368 82H363.9Q362 82 361.2 82.8Q360.4 83.6 360.4 85.6V103.9Q360.4 105.8 361.2 106.6Q362 107.4 363.9 107.4H368Q369.9 107.4 370.7 106.6Q371.5 105.8 371.5 103.9V101.4Q371.5 100.1 372.8 100.1H377.8Q379.1 100.1 379.1 101.4V104.2Q379.1 108.9 376.5 111.5Q373.9 114 369.2 114Z" class="ink"/><path d="M400.6 114H395.6Q394.3 114 394.3 112.7V82.7Q394.3 82 393.6 82H386.8Q385.5 82 385.5 80.8V76.7Q385.5 75.4 386.8 75.4H409.4Q410.7 75.4 410.7 76.7V80.8Q410.7 82 409.4 82H402.6Q401.9 82 401.9 82.7V112.7Q401.9 114 400.6 114Z" class="ink"/></svg>
