<svg xmlns="http://www.w3.org/2000/svg" viewBox="-12.0 5.6 461.8 125.2" width="462" height="125"><style>.body{fill:#D5EAE4}.g-a{stop-color:#0E6B6B}.g-b{stop-color:#0F9E80}.g-c{stop-color:#E8892F}.g-sun{stop-color:#E8892F}.sun{fill:#E8892F}.ink{fill:#061A1A}.tile{fill:#FFFFFF}.rim{stroke:rgba(6,32,31,.14)}</style><defs><linearGradient id="xL" gradientUnits="userSpaceOnUse" x1="-8.8" y1="0" x2="446.6" y2="0"><stop offset="0" class="g-a" stop-opacity=".15"/><stop offset=".28" class="g-b"/><stop offset=".5" class="g-sun"/><stop offset=".72" class="g-b"/><stop offset="1" class="g-a" stop-opacity=".15"/></linearGradient><radialGradient id="xH" gradientUnits="userSpaceOnUse" cx="218.9" cy="1316.2" r="1280.6"><stop offset="0.9813" class="g-a" stop-opacity="0"/><stop offset="0.9906" class="g-a" stop-opacity=".35"/><stop offset="1" class="g-b" stop-opacity=".55"/></radialGradient><linearGradient id="xF" gradientUnits="userSpaceOnUse" x1="-8.8" y1="0" x2="446.6" y2="0"><stop offset="0" stop-color="#fff" stop-opacity="0"/><stop offset=".5" stop-color="#fff"/><stop offset="1" stop-color="#fff" stop-opacity="0"/></linearGradient><mask id="xX"><rect x="-8.8" y="34.6" width="455.3" height="46.4" fill="url(#xF)"/></mask><radialGradient id="xG"><stop offset="0" class="g-c" stop-opacity=".75"/><stop offset="1" class="g-c" stop-opacity="0"/></radialGradient><linearGradient id="xS"><stop offset="0" class="g-c" stop-opacity="0"/><stop offset=".5" class="g-sun"/><stop offset="1" class="g-c" stop-opacity="0"/></linearGradient><mask id="xM"><rect x="-2342.3" y="-2525.5" width="5122.4" height="5122.4" fill="#fff"/><circle cx="218.9" cy="1316.2" r="1280.6" fill="#000"/></mask></defs><circle cx="218.9" cy="1316.2" r="1280.6" fill="url(#xH)" mask="url(#xX)"/><g mask="url(#xM)"><circle cx="218.9" cy="35.6" r="24.5" fill="url(#xG)"/><circle cx="218.9" cy="36.7" r="7.2" class="sun"/></g><path d="M-8.8 56 A1280.6 1280.6 0 0 1 446.6 56" fill="none" stroke="url(#xL)" stroke-width="3" stroke-linecap="round"/><rect x="36.8" y="34.8" width="364.3" height="1.7" rx="0.8" fill="url(#xS)"/><path d="M16.6 114.7Q13.5 114.7 10.9 114.1Q8.2 113.5 6.2 112.1Q4.2 110.6 3.1 108.1Q1.9 105.6 1.9 101.8Q1.9 101.6 1.9 101.2Q1.9 100.9 1.9 100.6H11.3Q11.2 100.9 11.2 101.2Q11.2 101.5 11.2 101.8Q11.2 103.7 11.8 104.8Q12.4 105.9 13.5 106.3Q14.6 106.8 16.1 106.8Q17 106.8 17.8 106.7Q18.5 106.5 19.1 106.2Q19.6 105.8 20 105.4Q20.5 104.9 20.6 104.2Q20.8 103.5 20.8 102.7Q20.8 101.3 20.1 100.3Q19.3 99.4 18 98.7Q16.7 98 15.1 97.5Q13.4 96.9 11.7 96.2Q10 95.6 8.3 94.7Q6.7 93.8 5.4 92.4Q4.1 91.1 3.3 89.1Q2.5 87.2 2.5 84.4Q2.5 81.1 3.6 78.8Q4.7 76.4 6.7 74.9Q8.6 73.4 11.1 72.7Q13.6 72 16.4 72Q19.2 72 21.7 72.7Q24.1 73.3 25.9 74.7Q27.8 76.1 28.8 78.3Q29.8 80.6 29.8 83.8V85H20.6V84.3Q20.6 82.9 20.2 82Q19.8 81 18.9 80.4Q18.1 79.9 16.6 79.9Q15.2 79.9 14.2 80.3Q13.3 80.7 12.8 81.5Q12.4 82.3 12.4 83.4Q12.4 84.8 13.1 85.8Q13.9 86.8 15.2 87.4Q16.6 88.1 18.2 88.7Q19.8 89.2 21.5 89.9Q23.3 90.5 24.9 91.4Q26.5 92.3 27.8 93.6Q29.2 94.9 29.9 96.8Q30.7 98.8 30.7 101.4Q30.7 106 28.9 109Q27.2 111.9 24 113.3Q20.8 114.7 16.6 114.7Z" class="ink"/><path d="M46.3 114V81H36.2V72.8H66.1V81H56V114Z" class="ink"/><path d="M73.5 114V72.8H100.1V80.8H83.2V89H97.7V97H83.2V105.9H100.4V114Z" class="ink"/><path d="M108.7 114V72.8H118.4V114Z" class="ink"/><path d="M128.1 114V72.8H137.1L146.2 90.2Q146.5 90.8 146.8 91.5Q147.2 92.3 147.6 93.1Q148 93.9 148.2 94.6H148.5Q148.4 93.4 148.4 92.2Q148.4 91.1 148.4 90.2V72.8H157.6V114H148.6L139.3 96.1Q138.8 95.1 138.3 93.9Q137.9 92.8 137.5 91.7H137.2Q137.2 92.8 137.2 93.9Q137.2 95.1 137.2 96.1V114Z" class="ink"/><path d="" class="ink"/><path d="M178.9 114V72.8H196Q200 72.8 202.6 74.5Q205.2 76.1 206.4 79.1Q207.7 82.1 207.7 86.2Q207.7 90.4 206.3 93.5Q205 96.6 202.4 98.4Q199.8 100.1 195.9 100.1H188.5V114ZM188.5 92.3H193.8Q195.9 92.3 196.9 90.7Q197.9 89.1 197.9 86.5Q197.9 84.5 197.5 83.2Q197 82 196.1 81.3Q195.2 80.6 193.6 80.6H188.5Z" class="ink"/><path d="M214.9 114V72.8H232.1Q236.7 72.8 239.4 74.4Q242.1 76.1 243.3 78.9Q244.5 81.8 244.5 85.3Q244.5 89 243.3 92Q242.1 95 239.5 96.8L245.9 114H235.5L230.6 99.4H224.5V114ZM224.5 91.7H230.6Q232.7 91.7 233.7 90.2Q234.7 88.6 234.7 86Q234.7 84.2 234.3 83.1Q233.9 81.9 232.9 81.2Q232 80.6 230.5 80.6H224.5Z" class="ink"/><path d="M268.6 114.7Q263.1 114.7 259.3 112.5Q255.6 110.2 253.6 105.5Q251.7 100.7 251.7 93.4Q251.7 86 253.6 81.3Q255.6 76.6 259.3 74.3Q263.1 72.1 268.6 72.1Q274.1 72.1 277.8 74.3Q281.6 76.6 283.5 81.3Q285.4 86 285.4 93.4Q285.4 100.7 283.5 105.5Q281.6 110.2 277.8 112.5Q274.1 114.7 268.6 114.7ZM268.6 106.7Q270.4 106.7 271.7 106Q273.1 105.2 273.9 103.9Q274.7 102.5 275.1 100.6Q275.5 98.6 275.5 96.1V90.7Q275.5 88.1 275.1 86.1Q274.7 84.2 273.9 82.8Q273.1 81.5 271.7 80.8Q270.4 80.1 268.6 80.1Q266.7 80.1 265.4 80.8Q264.1 81.5 263.2 82.8Q262.4 84.2 262 86.1Q261.6 88.1 261.6 90.7V96.1Q261.6 98.6 262 100.6Q262.4 102.5 263.2 103.9Q264.1 105.2 265.4 106Q266.7 106.7 268.6 106.7Z" class="ink"/><path d="M293.9 114V72.8H308.1Q313.6 72.8 317.1 74.9Q320.5 77.1 322.1 81.6Q323.8 86.2 323.8 93.3Q323.8 100.3 322.1 104.9Q320.5 109.6 317 111.8Q313.5 114 307.9 114ZM303.6 105.9H307.4Q309.1 105.9 310.4 105.4Q311.6 104.8 312.4 103.7Q313.1 102.5 313.5 100.6Q313.9 98.7 313.9 96V91.3Q313.9 88.6 313.5 86.6Q313.1 84.7 312.4 83.4Q311.6 82.1 310.4 81.4Q309.1 80.8 307.4 80.8H303.6Z" class="ink"/><path d="M346.7 114.7Q342.2 114.7 338.9 113.2Q335.6 111.7 333.8 108.4Q332 105.1 332 99.7V72.8H341.7V100Q341.7 103.2 342.9 104.9Q344 106.7 346.7 106.7Q349.3 106.7 350.5 104.9Q351.7 103.2 351.7 100V72.8H361.4V99.7Q361.4 105.1 359.7 108.4Q357.9 111.7 354.6 113.2Q351.4 114.7 346.7 114.7Z" class="ink"/><path d="M385.9 114.7Q380.3 114.7 376.8 112.4Q373.2 110.1 371.5 105.4Q369.7 100.6 369.7 93.4Q369.7 82.4 373.9 77.2Q378 72 386.3 72Q390.9 72 394.2 73.8Q397.4 75.5 399.2 79.3Q401 83.1 401 89.1H391.6Q391.6 86.2 391 84.2Q390.4 82.1 389.2 81.1Q388 80.1 386 80.1Q383.7 80.1 382.3 81.3Q380.9 82.4 380.2 84.8Q379.6 87.1 379.6 90.7V96.1Q379.6 99.7 380.2 102.1Q380.9 104.4 382.3 105.5Q383.6 106.7 385.9 106.7Q388 106.7 389.3 105.7Q390.6 104.7 391.2 102.7Q391.8 100.7 391.8 97.9H400.9Q400.9 103.7 399.1 107.5Q397.4 111.2 394 113Q390.7 114.7 385.9 114.7Z" class="ink"/><path d="M417 114V81H406.9V72.8H436.7V81H426.7V114Z" class="ink"/></svg>
